<svg xmlns="http://www.w3.org/2000/svg" viewBox="179.677 -4.44476 15.63 7.093">
	<path d="M180.825-4.244C182.3093-4.3413 183.7927-4.4017 185.241-4.43 186.8273-4.4547 188.3787-4.4473 189.98-4.416 192.256-4.302 192.483-4.259 194.027-3.836 195.575-3.352 195.561-2.979 194.798-1.977 194.193-1.114 193.419-.313 192.645.405 191.95 1.098 191.026 1.718 190.048 2.077 188.862 2.531 186.767 2.835 184.961 2.518 183.403 2.242 182.81 1.994 181.859 1.029 181.087.257 180.356-.998 179.878-2.595 179.515-3.838 179.543-4.1 180.825-4.244" fill="#000000"/>
</svg>