<svg xmlns="http://www.w3.org/2000/svg" viewBox="136.651 -11.8885 13.31 15.38">
	<path d="M138.085-9.107C139.071-10.189 139.802-10.796 141.339-11.516 142.972-12.036 143.979-11.981 145.371-11.54 147.729-10.837 149.066-9.417 149.672-7.728 150.389-5.557 149.645-3.255 148.651-1.597 147.342.579 145.749 2.03 144.214 2.88 142.533 3.711 141.365 3.888 138.938 2.136 136.995.42 136.836-.942 136.673-3.013 136.567-6.18 136.815-7.4 138.075-9.097M143.148-8.773C141.847-8.665 141.46-8.536 140.364-7.806 139.44-7.054 139.236-6.656 139.494-5.11 139.709-4.078 140.173-3.402 141.924-3.112 143.136-2.94 144.113-3.026 145.241-3.402 146.369-3.906 146.78-4.122 146.93-5.153 146.984-5.98 146.812-6.861 146.509-7.419 145.778-8.569 145.243-8.859 143.148-8.773" fill="#e8ceb8"/>
</svg>