<svg xmlns="http://www.w3.org/2000/svg" viewBox="141.797 308.504 10.54 5.736">
	<path d="M 141.963 310.733 C 141.695 310.899 141.768 311.1 142.063 311.261 C 143.823 312.2253 145.583 313.1897 147.343 314.154 C 147.598 314.293 147.802 314.244 147.967 314.144 C 149.2617 313.379 150.5563 312.614 151.84 311.817 C 152.277 311.539 152.115 311.171 151.954 310.867 C 151.8893 310.7453 151.8247 310.6237 151.76 310.502 C 151.714 310.412 151.688 310.316 151.771 310.251 C 151.9347 310.118 152.0983 309.985 152.262 309.852 C 152.368 309.763 152.359 309.682 152.216 309.658 C 150.1357 309.2777 148.0553 308.8973 145.975 308.517 C 145.705 308.471 145.451 308.553 145.234 308.688 C 144.1437 309.3697 143.0533 310.0513 141.963 310.733" fill="#313638"/>
</svg>