<svg xmlns="http://www.w3.org/2000/svg" viewBox="157.056 -3.68914 12.57 6.42">
	<path d="M158.933-3.27C160.627-3.351 162.042-3.351 163.978-3.411 165.816-3.485 166.168-3.596 167.877-3.661 169.338-3.747 169.37-3.725 169.37-2.253 169.421-1.004 169.496.221 169.583 1.432 169.693 2.806 169.682 2.795 168.146 2.688 165.041 2.581 162.001 2.505 159.026 2.387 157.049 2.323 156.92 2.291 157.129 1.115 157.2077.7033 157.332.305 157.357-.015 157.393-.739 157.393-1.394 157.414-2.006 157.5-3.188 157.371-3.242 158.933-3.27" fill="#000000"/>
</svg>