<svg xmlns="http://www.w3.org/2000/svg" viewBox="205.067 -3.54417 12.27 8.015">
	<path d="M206.18-2.619C207.551-3.163 208.23-3.36 209.969-3.505 210.9757-3.5467 211.9863-3.5703 213.007-3.496 214.132-3.394 214.911-3.15 215.731-2.727 216.553-2.224 216.95-1.532 217.243-.722 217.422-.213 217.423.885 216.666 1.636 215.662 2.661 214.405 3.39 213.014 4.027 211.304 4.699 210.887 4.538 209.753 4.011 208.633 3.465 207.867 2.942 207.276 2.334 206.469 1.513 205.462.226 205.251-.378 204.89-1.285 204.99-2.148 206.18-2.619" fill="#000000"/>
</svg>