<svg xmlns="http://www.w3.org/2000/svg" viewBox="185.838 234.157 5.97 8.965">
	<path d="M 185.843 241.921 C 186.117 238.754 186.032 237.168 185.867 235.601 C 185.768 234.582 187.107 234.164 188.475 234.157 C 190.446 234.183 190.985 234.282 191.394 236.067 C 192.015 238.776 191.962 238.91 191.07 240.955 C 190.989 241.141 190.944 241.259 191.05 241.404 C 191.604 242.102 191.688 242.526 190.517 242.926 C 189.947 243.102 189.852 243.146 189.652 242.839 C 189.622 242.785 189.559 242.739 189.472 242.73 C 189.153 242.698 188.836 242.666 188.384 242.62 C 188.281 242.609 188.221 242.65 188.22 242.724 C 188.213 243.328 185.715 243.378 185.843 241.921" fill="#000000"/>
</svg>