<svg xmlns="http://www.w3.org/2000/svg" viewBox="137.671 253.598 8.388 6.972">
	<path d="M 141.978 253.598 C 143.88 253.606 145.984 253.587 146.044 255.015 C 146.157 258.56 145.683 259.836 143.019 260.447 C 141.847 260.653 140.301 260.579 139.034 260.374 C 138.226 260.236 138.186 259.872 138.186 259.672 C 138.189 259.494 138.236 259.271 138.605 259.255 C 138.831 259.246 139.019 259.289 139.098 258.968 C 139.272 258.208 139.262 257.46 139.054 256.809 C 139.03 256.732 139.007 256.6563 138.976 256.586 C 138.785 256.124 138.1867 255.7323 137.784 255.309 C 137.559 255.079 137.684 254.667 138.046 254.439 C 139.007 253.845 140.387 253.591 141.978 253.598" fill="#ffe57f"/>
</svg>