<svg xmlns="http://www.w3.org/2000/svg" viewBox="40.4499 288.483 18.6 15.64">
	<path d="M 47.085 291.076 C 50.077 288.824 53.316 287.056 57.055 290.124 C 61.192 293.558 57.957 297.317 55.855 298.94 C 53.766 300.572 50.07 303.389 49.58 303.652 C 47.346 304.853 44.492 303.609 42.514 301.567 C 39.793 298.756 39.706 297.592 42.588 294.8 C 43.955 293.463 45.547 292.269 47.085 291.076 M 48.087 296.563 C 46.251 295.799 45.347 296.363 45.436 297.15 C 45.583 298.249 45.818 299.507 47.027 299.674 C 48.118 299.82 49.413 300.038 49.436 299.032 C 49.46 298.234 49.521 297.189 48.087 296.563" fill="#000000"/>
</svg>