<svg xmlns="http://www.w3.org/2000/svg" viewBox="161.816 200.86 8.641 4.472">
	<path d="M 165.759 200.861 C 167.217 200.849 168.648 200.95 170.097 201.135 C 170.474 201.179 170.515 201.293 170.402 201.508 C 169.8583 202.549 169.3147 203.59 168.771 204.631 C 168.404 205.312 167.106 204.866 166.307 205.236 C 165.873 205.416 165.707 205.325 165.367 205.117 C 164.637 204.651 163.344 204.096 162.385 203.983 C 161.924 203.922 161.894 203.767 161.877 203.496 C 161.838 202.881 161.821 201.985 161.816 201.797 C 161.807 201.413 162.142 201.22 162.45 201.134 C 163.026 200.975 163.763 200.909 165.759 200.861" fill="#ffe57f"/>
</svg>