<svg xmlns="http://www.w3.org/2000/svg" viewBox="-5.78205 156.157 19.48 15.77">
	<path d="M -5.264 160.769 C -4.626 160.013 -2.325 157.513 -0.553 156.648 C 0.657 156.06 1.954 155.977 3.036 156.527 C 5.564 157.784 10.704 161.072 12.674 163.868 C 14.493 166.748 13.608 169.391 12.222 170.784 C 11.114 171.943 8.316 172.552 5.041 170.987 C 1.508 169.105 -1.697 166.747 -4.721 164.234 C -5.816 163.277 -6.175 161.836 -5.264 160.769 M 3.199 163.686 C 4.765 162.934 5.087 161.852 4.966 160.95 C 4.72 159.142 2.389 158.632 1.063 159.076 C -2.395 160.174 -2.045 163.268 -0.684 164.067 C 0.737 164.869 2.699 163.934 3.199 163.686" fill="#e8e9eb"/>
</svg>