<svg xmlns="http://www.w3.org/2000/svg" viewBox="133.871 35.6392 20.88 5.92">
	<path d="M 136.066 35.974 C 138.301 35.445 141.552 35.672 143.998 35.791 C 147.014 35.9037 149.905 36.01 152.768 36.129 C 154.171 36.182 154.396 36.365 154.585 37.355 C 155.009 39.895 154.583 40.322 153.861 41.139 C 153.335 41.669 153.243 41.619 152.636 41.415 C 148.787 40.222 146.705 40.279 142.992 40.87 C 141.908 41.07 141.116 41.127 140.011 40.893 C 138.35 40.503 136.659 39.865 135.024 39.239 C 133.75 38.788 133.66 38.246 134.136 37.341 C 134.501 36.628 135.136 36.236 136.066 35.974" fill="#000000"/>
</svg>